# xmcd
#
# Track frame offsets:
#   150
#   8346
#   16682
#   29608
#   48826
#   63285
#   76586
#   85522
#   101121
#   108945
#   124533
#   139909
#   146165
#   157361
#   163857
#   173223
#   186379
#   205107
#   208846
#   224739
#   239849
#   255060
#   270039
#
# Disc length: 3662 seconds
#
# Revision: 0
# Processed by: cddbd v1.4PL0 Copyright (c) Steve Scherf et al.
# Submitted via: uFREEDB 1.6.0
#
DISCID=3a0e4c17
DTITLE=Boggs, Dock - His Folkways Years 1963-1968
DYEAR=1900
DGENRE=Dance
TTITLE0=Banjo Clog
TTITLE1=Wise County Jail
TTITLE2=Sugar Baby
TTITLE3=The Death of Jerry Damron
TTITLE4=Railroad Tramp
TTITLE5=Poor Boy in Jail
TTITLE6=Brother Jim Got Shot
TTITLE7=John Henry
TTITLE8=Davenport
TTITLE9=Dying Ranger
TTITLE10=Little Omie Wise
TTITLE11=Sugar Blues
TTITLE12=Loving Nancy
TTITLE13=Cuba
TTITLE14=John Hardy
TTITLE15=Peggy Walker
TTITLE16=I Hope I Live a Few More Days
TTITLE17=Turkey in the Straw
TTITLE18=Calvary
TTITLE19=Roses While I'm Living
TTITLE20=Leave It There
TTITLE21=Prayer of a Miner's Child
TTITLE22=Coke Oven March
EXTD=
EXTT0=
EXTT1=
EXTT2=
EXTT3=
EXTT4=
EXTT5=
EXTT6=
EXTT7=
EXTT8=
EXTT9=
EXTT10=
EXTT11=
EXTT12=
EXTT13=
EXTT14=
EXTT15=
EXTT16=
EXTT17=
EXTT18=
EXTT19=
EXTT20=
EXTT21=
EXTT22=
PLAYORDER=
